<svg width="243" height="58" viewBox="0 0 243 58" fill="none" xmlns="http://www.w3.org/2000/svg">
<g clip-path="url(#clip0_443_784)">
<path d="M0.0759894 20.0358L21.5786 57.021C21.6277 57.1056 21.6978 57.176 21.7821 57.2253C21.8665 57.2747 21.9621 57.3014 22.0598 57.3029C22.1575 57.3043 22.2539 57.2803 22.3397 57.2334C22.4254 57.1865 22.4975 57.1181 22.549 57.0351L33.1548 38.5173C33.1548 38.5173 22.0486 19.1868 21.8487 19.1868H0.565829C0.415964 19.1868 0.27222 19.2462 0.16614 19.3521C0.0600602 19.458 0.000309638 19.6017 0 19.7516C0.000232198 19.8514 0.0264214 19.9493 0.0759894 20.0358Z" fill="white"/>
<path d="M44.3077 19.1867L33.0379 38.5172L44.3077 57.8571H65.8618L66.1225 57.3051C66.1225 57.3051 56.1106 39.9779 55.7914 39.3148C55.4722 38.6517 55.7914 37.9828 55.7914 37.9828C55.7914 37.9828 57.365 35.0731 60.5846 29.6654C61.8706 27.2433 62.5334 26.1849 63.0618 23.0764C64.1818 14.5298 61.5292 9.70679 58.5703 6.2755C53.2569 0.495865 46.5675 0.176593 46.5675 0.176593L11.9705 0C11.8858 0.0116368 11.4824 0.0404602 11.4093 0.0847027C11.3361 0.128945 11.2727 0.187674 11.2231 0.257288C11.0664 0.518085 11.258 0.712526 11.5586 1.2268L21.9633 19.1867H44.3077Z" fill="white"/>
</g>
<path d="M212.996 52.8899V23.9777C212.996 23.4254 213.444 22.9777 213.996 22.9777H221.427C221.974 22.9777 222.418 23.4217 222.418 23.9695V24.3001C222.418 24.6653 222.714 24.9613 223.08 24.9613C223.576 24.9613 224.071 22.1511 231.18 22.1511C238.288 22.1512 242.751 26.6143 242.751 35.2103V52.8907C242.751 53.443 242.303 53.8899 241.751 53.8899H234.494C233.942 53.8899 233.494 53.4422 233.494 52.8899V37.6899C233.494 36.2021 233.494 30.5817 228.039 30.5817C222.584 30.5817 222.418 35.8715 222.418 37.6899V52.8899C222.418 53.4422 221.971 53.8899 221.418 53.8899H213.996C213.444 53.8899 212.996 53.4422 212.996 52.8899Z" fill="white"/>
<path d="M187.208 53.0633C182.778 50.4887 180.927 46.1205 180.927 43.145V23.4723C180.927 22.92 181.374 22.4817 181.927 22.4817H189.018C189.571 22.4817 190.018 22.9294 190.018 23.4817V39.5082C189.853 41.6021 191.142 45.7899 195.638 45.7899C200.267 45.7899 201.094 41.1613 201.094 39.5082V23.4817C201.094 22.9294 201.542 22.4817 202.094 22.4817H209.356C209.907 22.4817 210.353 22.9262 210.356 23.4763L210.511 52.3886C210.514 52.943 210.065 53.3939 209.511 53.3939H202.094C201.542 53.3939 201.094 52.9459 201.094 52.3934C201.094 51.9816 201.094 51.5342 201.094 51.245C201.093 50.6008 200.622 51.2117 200.598 51.2437L200.596 51.2465C197.542 55.2824 188.28 53.6862 187.208 53.0633Z" fill="white"/>
<path fill-rule="evenodd" clip-rule="evenodd" d="M146.882 10.5796C146.329 10.5796 145.882 11.0273 145.882 11.5796V52.8898C145.882 53.4421 146.329 53.8898 146.882 53.8898H154.8C155.352 53.8898 155.8 53.4421 155.8 52.8898V40.6735C155.8 40.1212 156.248 39.6735 156.8 39.6735H159.853C160.209 39.6735 160.539 39.8629 160.718 40.1708L168.694 53.8898H179.769C180.582 53.8898 172.133 40.9345 170.273 38.3136C170.209 38.2237 170.159 38.1331 170.143 38.024C170.13 37.9384 170.143 37.8854 170.182 37.8551C171.008 37.2152 177.786 34.2184 178.116 23.9694C178.3 18.2915 174.788 14.051 173.322 12.8939C170.391 10.5796 166.545 10.5796 164.892 10.5796H146.882ZM155.8 20.8367C155.8 20.2844 156.248 19.8367 156.8 19.8367H164.798C165.817 19.8367 168.363 20.736 168.363 25.4571C168.363 28.9167 166.326 31.0775 164.968 31.0775H156.8C156.248 31.0775 155.8 30.6298 155.8 30.0775V20.8367Z" fill="white"/>
<path d="M127.698 45.4592V32.4082C127.698 31.8559 127.25 31.4082 126.698 31.4082H123.739C123.187 31.4082 122.739 30.9605 122.739 30.4082V23.4817C122.739 22.9294 123.187 22.4817 123.739 22.4817H126.698C127.25 22.4817 127.698 22.0339 127.698 21.4817V17.4335C127.698 16.995 127.984 16.6076 128.403 16.4781L135.52 14.2782C136.156 14.0817 136.803 14.5491 136.815 15.2143L136.937 21.5264C136.947 22.0609 137.376 22.4927 137.91 22.5068L142.263 22.6213C142.805 22.6356 143.237 23.079 143.237 23.621V30.4082C143.237 30.9605 142.789 31.4082 142.237 31.4082H137.79C137.238 31.4082 136.79 31.8536 136.79 32.4059V43.1449C136.79 44.457 138.718 44.9976 139.174 45.107C139.238 45.1224 139.303 45.1286 139.368 45.1286H142.237C142.789 45.1286 143.237 45.5763 143.237 46.1286V52.7245C143.237 53.2768 142.791 53.7245 142.239 53.7245H135.963C129.857 53.7245 127.918 47.9388 127.698 45.4592Z" fill="white"/>
<path d="M111.17 52.7341V23.9872C111.17 23.4349 111.617 22.9872 112.17 22.9872H119.096C119.648 22.9872 120.096 23.4349 120.096 23.9872V52.7341C120.096 53.2864 119.648 53.7341 119.096 53.7341H112.17C111.617 53.7341 111.17 53.2864 111.17 52.7341Z" fill="white"/>
<path d="M112.786 20.5913L112.999 20.7081C114.619 21.5964 116.597 21.5203 118.143 20.5102C120.937 18.6856 121.197 14.69 118.664 12.5184L118.479 12.3602C116.789 10.9116 114.348 10.7458 112.478 11.9525C109.275 14.019 109.444 18.7584 112.786 20.5913Z" fill="white"/>
<path fill-rule="evenodd" clip-rule="evenodd" d="M76.1355 54.8817C76.1355 54.8817 76.1061 12.2327 76.1355 12.2327L89.1969 12.2327L94.6498 12.2327C100.766 12.2327 105.725 16.5307 106.552 22.3164C107.228 27.0475 104.623 31.2429 102.915 32.8959C105.34 34.1633 109.759 38.4172 108.04 45.2939C106.32 52.1706 99.9396 54.551 96.9641 54.8817H76.1355ZM94.4714 37.7562H85.7102V46.0215H94.6368C95.9592 46.0215 97.9429 44.4326 97.9429 41.8888C97.9429 38.4174 95.4633 37.7562 94.4714 37.7562ZM85.7102 20.8286H93.4796C94.6368 20.8286 96.4551 21.8204 96.4551 24.4653C96.4551 27.1102 94.6368 28.4327 93.4796 28.4327H85.7102V20.8286Z" fill="white"/>
<defs>
<clipPath id="clip0_443_784">
<rect width="66.1224" height="57.8571" fill="white"/>
</clipPath>
</defs>
</svg>
