<svg width="213" height="51" viewBox="0 0 213 51" fill="none" xmlns="http://www.w3.org/2000/svg">
<path d="M186.846 43.7524V18.5812C186.846 18.029 187.294 17.5812 187.846 17.5812H194.256C194.738 17.5812 195.128 17.9716 195.128 18.453V18.7436C195.128 19.0646 195.388 19.3248 195.709 19.3248C196.145 19.3248 196.581 16.8547 202.829 16.8547C209.077 16.8548 213 20.7778 213 28.3335V43.7573C213 44.3096 212.552 44.7524 212 44.7524H205.863C205.311 44.7524 204.863 44.3047 204.863 43.7524V30.513C204.863 29.2053 204.863 24.265 200.068 24.265C195.273 24.265 195.128 28.9147 195.128 30.513V43.7524C195.128 44.3047 194.68 44.7524 194.128 44.7524H187.846C187.294 44.7524 186.846 44.3047 186.846 43.7524Z" fill="#474747"/>
<path d="M164.179 44.0258C160.285 41.7628 158.658 37.9232 158.658 35.3078V18.1427C158.658 17.5904 159.105 17.1453 159.658 17.1453H165.649C166.201 17.1453 166.649 17.593 166.649 18.1453V32.1112C166.504 33.9517 167.637 37.6326 171.589 37.6326C175.657 37.6326 176.384 33.5642 176.384 32.1112V18.1453C176.384 17.593 176.832 17.1453 177.384 17.1453H183.526C184.077 17.1453 184.523 17.5897 184.526 18.1399L184.661 43.3111C184.664 43.8654 184.215 44.3164 183.661 44.3164H177.385C176.832 44.3164 176.385 43.8684 176.385 43.3159C176.385 42.9897 176.385 42.6536 176.384 42.4275C176.384 41.8634 175.973 42.3943 175.949 42.426L175.947 42.4291C173.262 45.9763 165.121 44.5732 164.179 44.0258Z" fill="#474747"/>
<path fill-rule="evenodd" clip-rule="evenodd" d="M129 7C128.448 7 128 7.44772 128 8V44C128 44.5523 128.448 45 129 45H135.766C136.319 45 136.766 44.5523 136.766 44V33.5267C136.766 32.9744 137.214 32.5267 137.766 32.5267H140.284C140.639 32.5267 140.967 32.715 141.147 33.0213L148.162 45H157.952C158.668 45 151.239 33.6895 149.571 31.3509C149.506 31.2608 149.451 31.1687 149.441 31.0585C149.434 30.9956 149.446 30.9553 149.477 30.9313C150.208 30.3699 156.198 27.7405 156.49 18.7481C156.652 13.7663 153.549 10.0458 152.253 9.03053C149.662 7 146.263 7 144.802 7H129ZM136.766 16.1221C136.766 15.5699 137.214 15.1221 137.766 15.1221H144.719C145.619 15.1221 147.87 15.9111 147.87 20.0534C147.87 23.0888 146.07 24.9847 144.869 24.9847H137.766C137.214 24.9847 136.766 24.537 136.766 23.9847V16.1221Z" fill="#474747"/>
<path d="M111.871 37.3419V25.9914C111.871 25.4391 111.423 24.9914 110.871 24.9914H108.512C107.96 24.9914 107.512 24.5437 107.512 23.9914V18.1452C107.512 17.5929 107.96 17.1452 108.512 17.1452H110.871C111.423 17.1452 111.871 16.6975 111.871 16.1452V12.7973C111.871 12.3588 112.157 11.9714 112.576 11.8419L118.593 9.98201C119.229 9.78554 119.875 10.253 119.888 10.9182L119.989 16.1899C120 16.7244 120.429 17.1563 120.963 17.1703L124.556 17.2649C125.097 17.2791 125.529 17.7225 125.529 18.2645V23.9914C125.529 24.5437 125.082 24.9914 124.529 24.9914H120.863C120.31 24.9914 119.863 25.4351 119.863 25.9874V35.3077C119.863 36.4496 121.524 36.9267 121.946 37.0294C122.01 37.045 122.075 37.0513 122.141 37.0513H124.529C125.082 37.0513 125.529 37.4991 125.529 38.0513V43.6069C125.529 44.1592 125.083 44.6069 124.531 44.6069H119.136C113.769 44.6069 112.065 39.5214 111.871 37.3419Z" fill="#474747"/>
<path d="M97.3429 43.6155V18.5897C97.3429 18.0374 97.7907 17.5897 98.3429 17.5897H104.189C104.741 17.5897 105.189 18.0374 105.189 18.5897V43.6155C105.189 44.1678 104.741 44.6155 104.189 44.6155H98.3429C97.7907 44.6155 97.3429 44.1678 97.3429 43.6155Z" fill="#474747"/>
<path d="M98.7639 15.4837L98.9512 15.5864C100.375 16.3672 102.113 16.3003 103.473 15.4124C105.928 13.8087 106.157 10.2966 103.93 8.38783L103.768 8.2488C102.283 6.97551 100.137 6.82975 98.4928 7.89043C95.6774 9.70686 95.8261 13.8726 98.7639 15.4837Z" fill="#474747"/>
<path fill-rule="evenodd" clip-rule="evenodd" d="M67.0113 46C67.0113 46 66.9858 7.00005 67.0113 7.00002L78.3323 7L83.0587 7C88.36 7 92.6584 10.9303 93.3748 16.221C93.9606 20.5473 91.7032 24.3837 90.2226 25.8954C92.3241 27.0543 96.1544 30.9442 94.6643 37.2326C93.1742 43.5209 87.6436 45.6977 85.0646 46H67.0113ZM82.904 30.3397H75.3102V37.8979H83.0473C84.1936 37.8979 85.9129 36.4449 85.9129 34.1188C85.9129 30.9444 83.7637 30.3397 82.904 30.3397ZM75.3102 14.8605H82.0444C83.0473 14.8605 84.6234 15.7674 84.6234 18.186C84.6234 20.6046 83.0473 21.814 82.0444 21.814H75.3102V14.8605Z" fill="#474747"/>
<path d="M0.0667929 17.6108L18.9671 50.1199C19.0102 50.1942 19.0719 50.2561 19.146 50.2995C19.2201 50.3429 19.3042 50.3664 19.3901 50.3677C19.476 50.3689 19.5607 50.3479 19.636 50.3066C19.7114 50.2654 19.7748 50.2053 19.82 50.1323L29.1423 33.8556C29.1423 33.8556 19.3802 16.8645 19.2045 16.8645H0.49735C0.365623 16.8645 0.239275 16.9168 0.146033 17.0099C0.0527915 17.1029 0.000272164 17.2292 0 17.361C0.000204097 17.4487 0.0232238 17.5347 0.0667929 17.6108Z" fill="url(#paint0_linear_444_515)"/>
<path d="M38.9455 16.8647L29.0396 33.8558L38.9455 50.8551H57.891L58.1202 50.3699C58.1202 50.3699 49.32 35.1397 49.0394 34.5568C48.7589 33.974 49.0394 33.386 49.0394 33.386C49.0394 33.386 50.4225 30.8284 53.2525 26.0752C54.3828 23.9463 54.9655 23.016 55.43 20.2836C56.4144 12.7713 54.0828 8.53204 51.482 5.51602C46.8116 0.435854 40.9318 0.155221 40.9318 0.155221L10.5219 0C10.4474 0.0102284 10.0929 0.0355635 10.0286 0.0744517C9.96424 0.11334 9.90854 0.164961 9.86487 0.22615C9.72717 0.455385 9.89557 0.626294 10.1598 1.07833L19.3053 16.8647H38.9455Z" fill="url(#paint1_linear_444_515)"/>
<path d="M39.0102 16.8647C45.5438 17.2907 54.9479 21.5163 54.5284 23.1951C54.3652 23.8485 55.0302 23.016 55.4947 20.2836C56.4791 12.7713 54.1475 8.53204 51.5467 5.51602C46.8764 0.435854 40.9965 0.155221 40.9965 0.155221L10.5866 0C10.5121 0.0102284 10.1576 0.0355635 10.0933 0.0744517C10.029 0.11334 9.97328 0.164961 9.92961 0.226151C9.79192 0.455385 9.96031 0.626294 10.2245 1.07833L19.37 16.8647H39.0102Z" fill="url(#paint2_linear_444_515)"/>
<defs>
<linearGradient id="paint0_linear_444_515" x1="14.5711" y1="16.8645" x2="14.5711" y2="50.3677" gradientUnits="userSpaceOnUse">
<stop stop-color="#FF3000"/>
<stop offset="0.65" stop-color="#FF9300"/>
</linearGradient>
<linearGradient id="paint1_linear_444_515" x1="40.3794" y1="50.8551" x2="42.8815" y2="18.9481" gradientUnits="userSpaceOnUse">
<stop offset="0.018331" stop-color="#0085FF"/>
<stop offset="1" stop-color="#235BB2"/>
</linearGradient>
<linearGradient id="paint2_linear_444_515" x1="13.1152" y1="1.30677" x2="55.7323" y2="16.0432" gradientUnits="userSpaceOnUse">
<stop stop-color="#5DA8FF"/>
<stop offset="0.555604" stop-color="#1076FF"/>
<stop offset="0.99" stop-color="#235BB2"/>
</linearGradient>
</defs>
</svg>
