<svg width="213" height="51" viewBox="0 0 213 51" fill="none" xmlns="http://www.w3.org/2000/svg">
<g id="Group 4200">
<g id="Group 4201">
<path id="Vector 10" d="M186.846 43.7526V18.5815C186.846 18.0292 187.294 17.5815 187.846 17.5815H194.256C194.738 17.5815 195.128 17.9718 195.128 18.4533V18.7439C195.128 19.0649 195.388 19.3251 195.709 19.3251C196.145 19.3251 196.581 16.855 202.829 16.855C209.077 16.855 213 20.7781 213 28.3337V43.7575C213 44.3098 212.552 44.7526 212 44.7526H205.863C205.311 44.7526 204.863 44.3049 204.863 43.7526V30.5132C204.863 29.2055 204.863 24.2653 200.068 24.2653C195.273 24.2653 195.128 28.9149 195.128 30.5132V43.7526C195.128 44.3049 194.68 44.7526 194.128 44.7526H187.846C187.294 44.7526 186.846 44.3049 186.846 43.7526Z" fill="#474747"/>
<path id="Vector 9" d="M164.179 44.0258C160.285 41.7628 158.658 37.9232 158.658 35.3078V18.1427C158.658 17.5904 159.105 17.1453 159.658 17.1453H165.649C166.201 17.1453 166.649 17.593 166.649 18.1453V32.1112C166.504 33.9517 167.637 37.6326 171.589 37.6326C175.657 37.6326 176.384 33.5642 176.384 32.1112V18.1453C176.384 17.593 176.832 17.1453 177.384 17.1453H183.526C184.077 17.1453 184.523 17.5897 184.526 18.1399L184.661 43.3111C184.664 43.8654 184.215 44.3164 183.661 44.3164H177.385C176.832 44.3164 176.385 43.8684 176.385 43.3159C176.385 42.9897 176.385 42.6536 176.384 42.4275C176.384 41.8634 175.973 42.3943 175.949 42.426L175.947 42.4291C173.262 45.9763 165.121 44.5732 164.179 44.0258Z" fill="#474747"/>
<path id="Vector 8" fill-rule="evenodd" clip-rule="evenodd" d="M128.854 6.68359C128.302 6.68359 127.854 7.13131 127.854 7.68359V43.7523C127.854 44.3045 128.302 44.7523 128.854 44.7523H135.572C136.124 44.7523 136.572 44.3045 136.572 43.7523V33.2564C136.572 32.7041 137.02 32.2564 137.572 32.2564H140.065C140.421 32.2564 140.751 32.4459 140.93 32.7538L147.905 44.7523H157.641C158.353 44.7523 150.964 33.4196 149.305 31.078C149.242 30.988 149.187 30.8963 149.177 30.7866C149.17 30.7229 149.182 30.6823 149.213 30.6581C149.94 30.0957 155.897 27.4615 156.188 18.4529C156.348 13.4622 153.262 9.7349 151.974 8.7178C149.397 6.68359 146.016 6.68359 144.563 6.68359H128.854ZM136.572 15.8204C136.572 15.2681 137.02 14.8204 137.572 14.8204H144.481C145.376 14.8204 147.615 15.6108 147.615 19.7606C147.615 22.8015 145.824 24.7008 144.63 24.7008H137.572C137.02 24.7008 136.572 24.2531 136.572 23.7008V15.8204Z" fill="#474747"/>
<path id="Vector 7" d="M111.871 37.3422V25.9917C111.871 25.4394 111.423 24.9917 110.871 24.9917H108.512C107.96 24.9917 107.512 24.544 107.512 23.9917V18.1455C107.512 17.5932 107.96 17.1455 108.512 17.1455H110.871C111.423 17.1455 111.871 16.6977 111.871 16.1455V12.7975C111.871 12.359 112.157 11.9716 112.576 11.8421L118.593 9.98226C119.229 9.78579 119.875 10.2532 119.888 10.9184L119.989 16.1902C120 16.7246 120.429 17.1565 120.963 17.1706L124.556 17.2651C125.097 17.2794 125.529 17.7227 125.529 18.2648V23.9917C125.529 24.544 125.082 24.9917 124.529 24.9917H120.863C120.31 24.9917 119.863 25.4354 119.863 25.9877V35.308C119.863 36.4498 121.524 36.927 121.946 37.0297C122.01 37.0452 122.075 37.0516 122.141 37.0516H124.529C125.082 37.0516 125.529 37.4993 125.529 38.0516V43.6072C125.529 44.1595 125.083 44.6072 124.531 44.6072H119.136C113.769 44.6072 112.065 39.5217 111.871 37.3422Z" fill="#474747"/>
<g id="Vector 6">
<path d="M97.3429 43.6155V18.5897C97.3429 18.0374 97.7907 17.5897 98.3429 17.5897H104.189C104.741 17.5897 105.189 18.0374 105.189 18.5897V43.6155C105.189 44.1678 104.741 44.6155 104.189 44.6155H98.3429C97.7907 44.6155 97.3429 44.1678 97.3429 43.6155Z" fill="#474747"/>
<path d="M98.7639 15.4837L98.9512 15.5864C100.375 16.3672 102.113 16.3003 103.473 15.4124C105.928 13.8087 106.157 10.2966 103.93 8.38783L103.768 8.2488C102.283 6.97551 100.137 6.82975 98.4928 7.89043C95.6774 9.70686 95.8261 13.8726 98.7639 15.4837Z" fill="#474747"/>
</g>
<path id="Vector 5" fill-rule="evenodd" clip-rule="evenodd" d="M66.5487 45.6244C66.5487 45.6244 66.5229 8.13701 66.5487 8.13698L78.0293 8.13697L82.8223 8.13697C88.1985 8.13697 92.5575 11.9148 93.284 17.0003C93.878 21.1588 91.5888 24.8465 90.0874 26.2995C92.2184 27.4135 96.1028 31.1526 94.5917 37.197C93.0805 43.2415 87.472 45.3338 84.8566 45.6244H66.5487ZM82.6656 30.5715H74.9646V37.8365H82.8109C83.9733 37.8365 85.7169 36.4399 85.7169 34.204C85.7169 31.1527 83.5374 30.5715 82.6656 30.5715ZM74.9646 15.6926H81.7938C82.8109 15.6926 84.4092 16.5644 84.4092 18.8892C84.4092 21.214 82.8109 22.3764 81.7938 22.3764H74.9646V15.6926Z" fill="#474747"/>
</g>
<g id="&#208;&#161;&#208;&#187;&#208;&#190;&#208;&#185; 2">
<path id="Vector" d="M0.0667929 17.6108L18.9671 50.1199C19.0102 50.1942 19.0719 50.2561 19.146 50.2995C19.2201 50.3429 19.3042 50.3664 19.3901 50.3677C19.476 50.3689 19.5607 50.3479 19.636 50.3066C19.7114 50.2654 19.7748 50.2053 19.82 50.1323L29.1423 33.8556C29.1423 33.8556 19.3802 16.8645 19.2045 16.8645H0.49735C0.365623 16.8645 0.239275 16.9168 0.146033 17.0099C0.0527915 17.1029 0.000272164 17.2292 0 17.361C0.000204097 17.4487 0.0232238 17.5347 0.0667929 17.6108Z" fill="url(#paint0_linear_444_515)"/>
<path id="Vector_2" d="M38.9455 16.8647L29.0396 33.8558L38.9455 50.8551H57.891L58.1202 50.3699C58.1202 50.3699 49.32 35.1397 49.0394 34.5568C48.7589 33.974 49.0394 33.386 49.0394 33.386C49.0394 33.386 50.4226 30.8284 53.2525 26.0752C54.3829 23.9463 54.9655 23.016 55.43 20.2836C56.4144 12.7713 54.0828 8.53204 51.482 5.51602C46.8116 0.435854 40.9318 0.155221 40.9318 0.155221L10.5219 0C10.4474 0.0102284 10.0929 0.0355635 10.0286 0.0744517C9.96424 0.11334 9.90854 0.164961 9.86488 0.22615C9.72718 0.455385 9.89557 0.626294 10.1598 1.07833L19.3053 16.8647H38.9455Z" fill="url(#paint1_linear_444_515)"/>
<path id="Vector_3" d="M39.0102 16.8647C45.5438 17.2907 54.9479 21.5163 54.5284 23.1951C54.3652 23.8485 55.0302 23.016 55.4947 20.2836C56.4791 12.7713 54.1475 8.53204 51.5467 5.51602C46.8764 0.435854 40.9965 0.155221 40.9965 0.155221L10.5866 0C10.5121 0.0102284 10.1576 0.0355635 10.0933 0.0744517C10.029 0.11334 9.97327 0.164961 9.9296 0.226151C9.79191 0.455385 9.9603 0.626294 10.2245 1.07833L19.37 16.8647H39.0102Z" fill="url(#paint2_linear_444_515)"/>
</g>
</g>
<defs>
<linearGradient id="paint0_linear_444_515" x1="14.5711" y1="16.8645" x2="14.5711" y2="50.3677" gradientUnits="userSpaceOnUse">
<stop stop-color="#FF3000"/>
<stop offset="0.65" stop-color="#FF9300"/>
</linearGradient>
<linearGradient id="paint1_linear_444_515" x1="40.3794" y1="50.8551" x2="42.8815" y2="18.9481" gradientUnits="userSpaceOnUse">
<stop offset="0.018331" stop-color="#0085FF"/>
<stop offset="1" stop-color="#235BB2"/>
</linearGradient>
<linearGradient id="paint2_linear_444_515" x1="13.1151" y1="1.30677" x2="55.7323" y2="16.0432" gradientUnits="userSpaceOnUse">
<stop stop-color="#5DA8FF"/>
<stop offset="0.555604" stop-color="#1076FF"/>
<stop offset="0.99" stop-color="#235BB2"/>
</linearGradient>
</defs>
</svg>
